Land_normalized_pl14_filtered_grf
version=1
nRows=30
nColumns=37
inDegrees=yes
endheader
time		1_ground_force_vx		1_ground_force_vy		1_ground_force_vz		1_ground_force_px		1_ground_force_py		1_ground_force_pz		1_ground_torque_x		1_ground_torque_y		1_ground_torque_z		2_ground_force_vx		2_ground_force_vy		2_ground_force_vz		2_ground_force_px		2_ground_force_py		2_ground_force_pz		2_ground_torque_x		2_ground_torque_y		2_ground_torque_z		3_ground_force_vx		3_ground_force_vy		3_ground_force_vz		3_ground_force_px		3_ground_force_py		3_ground_force_pz		3_ground_torque_x		3_ground_torque_y		3_ground_torque_z		4_ground_force_vx		4_ground_force_vy		4_ground_force_vz		4_ground_force_px		4_ground_force_py		4_ground_force_pz		4_ground_torque_x		4_ground_torque_y		4_ground_torque_z		
1.412833		-7.919825		840.051198		222.164792		0.118284		0.000000		0.267856		-0.194601		20.644226		5.459710		48.886148		951.457850		241.970197		-0.123504		0.000000		0.265137		-0.674312		-13.124369		-3.337716		22.588447		1.812598		0.694403		0.376066		1.310592		1.913955		-0.090798		-0.007286		-0.002791		-18.819311		-0.255647		1.837970		-0.265015		1.309943		1.925283		0.004550		0.000062		-0.000445		
1.415662		-13.028129		831.706902		215.701107		0.118752		0.000000		0.267511		-0.308150		19.674438		5.102551		44.374339		915.906025		232.692734		-0.122736		0.000000		0.265433		-0.608299		-12.555590		-3.189830		22.556552		1.930707		0.762359		0.376051		1.310611		1.913957		-0.091566		-0.007838		-0.003095		-18.886022		-0.161762		1.922967		-0.265029		1.309931		1.925259		0.005307		0.000045		-0.000540		
1.418490		-19.219355		823.702569		207.088446		0.119509		0.000000		0.267379		-0.437416		18.746907		4.713195		45.261648		883.649433		228.878546		-0.122738		0.000000		0.265080		-0.573566		-11.197892		-2.900418		22.512580		2.065518		0.804731		0.376032		1.310641		1.913958		-0.091781		-0.008421		-0.003281		-18.975782		-0.097830		1.993021		-0.265040		1.309923		1.925232		0.006539		0.000034		-0.000686		
1.421318		-26.255133		816.130977		196.919716		0.120581		0.000000		0.267570		-0.573697		17.834751		4.303308		49.284006		855.376089		228.635166		-0.123307		0.000000		0.264271		-0.554071		-9.617602		-2.570630		22.472054		2.188254		0.810494		0.376009		1.310674		1.913951		-0.091690		-0.008928		-0.003307		-19.050983		-0.075682		2.016861		-0.265049		1.309919		1.925202		0.007802		0.000031		-0.000826		
1.424146		-33.808957		808.938188		186.213497		0.121903		0.000000		0.268032		-0.705579		16.883482		3.886552		54.239158		831.521416		229.252343		-0.124156		0.000000		0.263387		-0.544118		-8.342275		-2.299947		22.450126		2.271306		0.782496		0.375985		1.310701		1.913933		-0.091746		-0.009282		-0.003198		-19.081469		-0.095614		1.984233		-0.265056		1.309917		1.925170		0.008752		0.000044		-0.000910		
1.426975		-41.492618		801.897199		175.958162		0.123361		0.000000		0.268641		-0.823162		15.908882		3.490856		59.142941		812.151196		228.666494		-0.125095		0.000000		0.262750		-0.552163		-7.582364		-2.134861		22.453608		2.294052		0.734731		0.375959		1.310716		1.913903		-0.092344		-0.009434		-0.003022		-19.060895		-0.145755		1.909252		-0.265063		1.309917		1.925137		0.009274		0.000071		-0.000929		
1.429803		-48.917301		794.626165		166.825896		0.124833		0.000000		0.269250		-0.921447		14.969130		3.142708		64.254152		797.015468		226.147713		-0.126110		0.000000		0.262512		-0.579804		-7.192095		-2.040707		22.477316		2.246523		0.684835		0.375939		1.310717		1.913864		-0.093658		-0.009361		-0.002853		-19.009696		-0.206980		1.824824		-0.265070		1.309918		1.925102		0.009443		0.000103		-0.000906		
1.432631		-55.792417		786.708326		159.041644		0.126233		0.000000		0.269749		-0.999166		14.089414		2.848357		70.336373		785.706124		222.258557		-0.127305		0.000000		0.262654		-0.611829		-6.834799		-1.933415		22.505707		2.133739		0.643946		0.375923		1.310706		1.913820		-0.095602		-0.009064		-0.002736		-18.963330		-0.262307		1.767032		-0.265078		1.309919		1.925067		0.009431		0.000130		-0.000879		
1.435460		-61.923540		777.823092		152.569563		0.127510		0.000000		0.270089		-1.054815		13.249713		2.598932		77.765781		777.967522		218.027642		-0.128759		0.000000		0.263085		-0.624735		-6.250008		-1.751587		22.520415		1.974669		0.611022		0.375913		1.310694		1.913781		-0.097942		-0.008588		-0.002657		-18.951662		-0.303656		1.757972		-0.265088		1.309918		1.925031		0.009398		0.000151		-0.000872		
1.438288		-67.144448		767.874098		147.324286		0.128650		0.000000		0.270289		-1.087873		12.441472		2.387037		86.101235		773.685089		214.133027		-0.130416		0.000000		0.263735		-0.602394		-5.413656		-1.498365		22.507709		1.802323		0.575510		0.375906		1.310690		1.913752		-0.100376		-0.008037		-0.002567		-18.984168		-0.332136		1.796358		-0.265099		1.309915		1.924993		0.009455		0.000165		-0.000894		
1.441116		-71.291349		757.056995		143.288335		0.129658		0.000000		0.270399		-1.101234		11.694409		2.213408		94.303416		772.745048		210.469020		-0.132103		0.000000		0.264579		-0.552641		-4.528835		-1.233521		22.463641		1.657722		0.525637		0.375900		1.310701		1.913737		-0.102601		-0.007572		-0.002401		-19.045895		-0.353985		1.859439		-0.265111		1.309911		1.924954		0.009605		0.000178		-0.000938		
1.443944		-74.220130		745.802940		140.527145		0.130538		0.000000		0.270468		-1.099566		11.049084		2.081912		101.372010		774.991792		206.380281		-0.133640		0.000000		0.265622		-0.504404		-3.856282		-1.026940		22.393971		1.578876		0.456242		0.375888		1.310730		1.913737		-0.104357		-0.007357		-0.002126		-19.109677		-0.374439		1.916429		-0.265123		1.309905		1.924916		0.009770		0.000192		-0.000980		
1.446773		-75.878717		734.717586		139.104761		0.131283		0.000000		0.270527		-1.087176		10.526965		1.993076		106.851010		780.079085		201.252493		-0.134939		0.000000		0.266851		-0.484879		-3.539963		-0.913287		22.313351		1.588375		0.371812		0.375870		1.310777		1.913750		-0.105462		-0.007507		-0.001757		-19.152254		-0.393777		1.940664		-0.265134		1.309898		1.924877		0.009887		0.000203		-0.001002		
1.449601		-76.328901		724.447493		139.032100		0.131889		0.000000		0.270603		-1.067646		10.133177		1.944702		110.947802		787.426445		195.049793		-0.136033		0.000000		0.268204		-0.496246		-3.521988		-0.872413		22.241151		1.682107		0.283841		0.375845		1.310831		1.913771		-0.105872		-0.008007		-0.001351		-19.166411		-0.406750		1.918155		-0.265143		1.309892		1.924840		0.010011		0.000212		-0.001002		
1.452429		-75.654205		715.567614		140.302255		0.132345		0.000000		0.270717		-1.044285		9.877264		1.936647		114.157308		796.356087		188.361973		-0.137008		0.000000		0.269578		-0.517061		-3.606993		-0.853160		22.195168		1.830376		0.205450		0.375814		1.310886		1.913795		-0.105656		-0.008713		-0.000978		-19.160603		-0.405881		1.848974		-0.265153		1.309885		1.924808		0.010317		0.000219		-0.000995		
1.455258		-73.927266		708.459830		142.852948		0.132634		0.000000		0.270849		-1.018527		9.760752		1.968147		116.806529		806.178564		182.056744		-0.137914		0.000000		0.270860		-0.520696		-3.593760		-0.811579		22.186165		1.986846		0.147251		0.375779		1.310930		1.913816		-0.104944		-0.009398		-0.000697		-19.151208		-0.386768		1.744789		-0.265165		1.309881		1.924782		0.010986		0.000222		-0.001001		
1.458086		-71.231654		703.250457		146.489168		0.132725		0.000000		0.270929		-0.988967		9.763815		2.033836		118.761253		816.300641		176.737554		-0.138722		0.000000		0.271980		-0.495916		-3.408655		-0.738020		22.213928		2.107655		0.113677		0.375746		1.310958		1.913828		-0.103851		-0.009853		-0.000531		-19.152683		-0.352774		1.624201		-0.265179		1.309878		1.924765		0.012060		0.000222		-0.001023		
1.460914		-67.700640		699.904241		150.857346		0.132604		0.000000		0.270878		-0.953525		9.857789		2.124753		119.486943		826.245209		172.471209		-0.139338		0.000000		0.272919		-0.453739		-3.137561		-0.654947		22.266740		2.166909		0.103048		0.375717		1.310969		1.913832		-0.102445		-0.009969		-0.000474		-19.173109		-0.315205		1.509382		-0.265196		1.309876		1.924753		0.013377		0.000220		-0.001053		
1.463742		-63.572668		698.297273		155.457005		0.132310		0.000000		0.270692		-0.912816		10.026697		2.232185		118.402391		835.607427		168.879754		-0.139670		0.000000		0.273699		-0.418968		-2.956778		-0.597583		22.323409		2.164039		0.109036		0.375694		1.310968		1.913827		-0.100788		-0.009770		-0.000492		-19.214299		-0.288975		1.424223		-0.265216		1.309874		1.924747		0.014626		0.000220		-0.001084		
1.466571		-59.171120		698.291482		159.762736		0.131933		0.000000		0.270460		-0.869524		10.261511		2.347746		115.260497		844.035769		165.541001		-0.139685		0.000000		0.274356		-0.410254		-3.004262		-0.589223		22.360861		2.119185		0.123769		0.375677		1.310961		1.913818		-0.099004		-0.009383		-0.000548		-19.274644		-0.285308		1.388897		-0.265237		1.309872		1.924743		0.015511		0.000229		-0.001118		
1.469399		-54.863295		699.788434		163.315889		0.131588		0.000000		0.270324		-0.826144		10.537672		2.459276		110.269835		851.212245		162.358503		-0.139429		0.000000		0.274909		-0.427005		-3.296309		-0.628723		22.361590		2.060004		0.141729		0.375663		1.310955		1.913806		-0.097304		-0.008964		-0.000617		-19.351478		-0.307247		1.414633		-0.265257		1.309868		1.924739		0.015879		0.000252		-0.001161		
1.472227		-51.027360		702.691794		165.783388		0.131383		0.000000		0.270389		-0.784870		10.808461		2.550001		104.024808		856.903717		159.629505		-0.139001		0.000000		0.275350		-0.452164		-3.724924		-0.693890		22.320527		2.009547		0.162254		0.375653		1.310956		1.913797		-0.095957		-0.008639		-0.000697		-19.439113		-0.348546		1.497639		-0.265275		1.309863		1.924734		0.015770		0.000283		-0.001215		
1.475056		-48.003155		706.920806		166.988266		0.131384		0.000000		0.270679		-0.749071		11.031259		2.605795		97.205994		861.006345		157.776503		-0.138512		0.000000		0.275662		-0.467422		-4.140288		-0.758692		22.247462		1.978864		0.188624		0.375644		1.310965		1.913790		-0.095216		-0.008469		-0.000808		-19.527078		-0.397839		1.617701		-0.265291		1.309858		1.924727		0.015350		0.000313		-0.001272		
1.477884		-46.061230		712.437570		166.905182		0.131605		0.000000		0.271141		-0.723037		11.183364		2.619964		90.334298		863.554212		156.981110		-0.138037		0.000000		0.275843		-0.464436		-4.439892		-0.807105		22.161774		1.968195		0.224502		0.375637		1.310979		1.913785		-0.095249		-0.008459		-0.000965		-19.601479		-0.443734		1.741585		-0.265304		1.309854		1.924723		0.014746		0.000334		-0.001310		
1.480712		-45.333793		719.237140		165.696805		0.132018		0.000000		0.271684		-0.709347		11.254034		2.592691		83.692896		864.760755		156.939623		-0.137612		0.000000		0.275941		-0.446686		-4.615478		-0.837632		22.082524		1.971498		0.269484		0.375634		1.310990		1.913780		-0.096026		-0.008573		-0.001172		-19.650101		-0.477619		1.832147		-0.265315		1.309854		1.924725		0.013917		0.000339		-0.001297		
1.483540		-45.800432		727.355766		163.661244		0.132584		0.000000		0.272241		-0.707443		11.234903		2.527952		77.413819		864.962137		156.980995		-0.137249		0.000000		0.276037		-0.423278		-4.729397		-0.858333		22.020588		1.982361		0.317930		0.375633		1.310994		1.913772		-0.097307		-0.008760		-0.001405		-19.668030		-0.494023		1.862269		-0.265326		1.309859		1.924736		0.012691		0.000319		-0.001202		
1.486369		-47.316866		736.856234		161.171685		0.133274		0.000000		0.272796		-0.714652		11.129170		2.434281		71.662063		864.545239		156.393816		-0.136964		0.000000		0.276217		-0.401771		-4.847100		-0.876826		21.979719		1.996625		0.360244		0.375636		1.310989		1.913762		-0.098729		-0.008969		-0.001618		-19.659331		-0.489444		1.823692		-0.265337		1.309868		1.924758		0.010967		0.000273		-0.001017		
1.489197		-49.629373		747.728614		158.617214		0.134063		0.000000		0.273385		-0.727845		10.965985		2.326254		66.740599		863.886082		154.782084		-0.136790		0.000000		0.276539		-0.384335		-4.974865		-0.891342		21.959602		2.011251		0.387263		0.375644		1.310975		1.913752		-0.099915		-0.009151		-0.001762		-19.635943		-0.461691		1.730757		-0.265351		1.309883		1.924789		0.008949		0.000210		-0.000789		
1.492025		-52.454750		759.843253		156.318383		0.134925		0.000000		0.274051		-0.744334		10.782220		2.218170		63.065409		863.266202		152.187614		-0.136780		0.000000		0.277007		-0.368799		-5.048273		-0.889974		21.956976		2.022647		0.394636		0.375656		1.310958		1.913747		-0.100605		-0.009268		-0.001808		-19.612111		-0.410248		1.613562		-0.265366		1.309900		1.924827		0.007159		0.000150		-0.000589		
1.494854		-55.524895		772.916274		154.494660		0.135827		0.000000		0.274805		-0.761281		10.597264		2.118251		61.035005		862.840325		148.938692		-0.136978		0.000000		0.277588		-0.351917		-4.974962		-0.858754		21.964480		2.026299		0.385476		0.375672		1.310945		1.913749		-0.100696		-0.009289		-0.001767		-19.598442		-0.339665		1.508760		-0.265381		1.309917		1.924868		0.006273		0.000108		-0.000483		
